<svg width="144" height="18" viewBox="0 0 144 18" fill="none" xmlns="http://www.w3.org/2000/svg">
<g clip-path="url(#clip0_29_464)">
<path fill-rule="evenodd" clip-rule="evenodd" d="M14.8163 0C10.865 0 8.39613 1.96374 7.40787 5.89123C8.88968 3.92748 10.6183 3.19123 12.5936 3.68187C13.7206 3.96174 14.5266 4.77465 15.4179 5.67465C16.8706 7.14019 18.5522 8.83626 22.2242 8.83626C26.1749 8.83626 28.6444 6.87252 29.6321 2.94561C28.1508 4.90936 26.4223 5.64561 24.4469 5.15439C23.3193 4.87452 22.5134 4.06161 21.6221 3.16219C20.1693 1.69548 18.4883 0 14.8163 0ZM7.40787 8.83626C3.45716 8.83626 0.987677 10.8 0 14.7275C1.48181 12.7637 3.21039 12.0275 5.18516 12.5181C6.31277 12.798 7.11871 13.6109 8.01 14.5109C9.46277 15.9765 11.1437 17.6725 14.8163 17.6725C18.767 17.6725 21.2365 15.7094 22.2242 11.7819C20.7424 13.7456 19.0138 14.4819 17.0385 13.9912C15.9114 13.7108 15.1055 12.8979 14.2142 11.9985C12.7614 10.5329 11.0799 8.83626 7.40787 8.83626V8.83626Z" fill="#818D98" fill-opacity="0.8"/>
<path fill-rule="evenodd" clip-rule="evenodd" d="M44.446 7.44669H41.8604V12.4211C41.8604 13.7478 42.736 13.7269 44.446 13.6439V15.6547C40.9842 16.0693 39.6081 15.1158 39.6081 12.4211V7.44669H37.6897V5.29075H39.6081V2.50714L41.8604 1.84346V5.29075H44.446V7.44669ZM54.3019 5.29075H56.5537V15.6547H54.3019V14.1624C53.5093 15.2604 52.2789 15.9241 50.6526 15.9241C47.8167 15.9241 45.4604 13.5406 45.4604 10.4724C45.4604 7.38456 47.8167 5.02133 50.6526 5.02133C52.2789 5.02133 53.5093 5.68443 54.3019 6.76269V5.29075V5.29075ZM51.0073 13.7891C52.884 13.7891 54.3019 12.4002 54.3019 10.4724C54.3019 8.54469 52.884 7.15636 51.0073 7.15636C49.1307 7.15636 47.7127 8.54527 47.7127 10.4724C47.7127 12.4002 49.1307 13.7891 51.0073 13.7891ZM60.3069 3.73636C59.5149 3.73636 58.8687 3.07327 58.8687 2.30623C58.8705 1.9261 59.0229 1.56218 59.2925 1.29414C59.562 1.02611 59.9268 0.875793 60.3069 0.876104C60.6872 0.875639 61.0521 1.02589 61.3218 1.29394C61.5915 1.56199 61.7439 1.926 61.7458 2.30623C61.7458 3.07269 61.0995 3.73636 60.3069 3.73636ZM59.1811 15.6547V5.29075H61.4334V15.6547H59.1811ZM64.0399 15.6547V0.522491H66.2917V15.6541H64.0399V15.6547ZM80.9094 5.29075H83.2866L80.0129 15.6547H77.8024L75.6336 8.66952L73.444 15.6547H71.2341L67.9598 5.29075H70.337L72.36 12.4414L74.5496 5.29075H76.6974L78.8655 12.4414L80.9094 5.29075V5.29075ZM86.0806 3.73636C85.288 3.73636 84.6418 3.07327 84.6418 2.30623C84.6436 1.926 84.7961 1.56199 85.0658 1.29394C85.3355 1.02589 85.7004 0.875639 86.0806 0.876104C86.4609 0.875639 86.8258 1.02589 87.0955 1.29394C87.3652 1.56199 87.5176 1.926 87.5195 2.30623C87.5195 3.07269 86.8732 3.73636 86.0806 3.73636ZM84.9548 15.6547V5.29075H87.2065V15.6547H84.9548V15.6547ZM95.2972 5.02133C97.6326 5.02133 99.3008 6.59662 99.3008 9.2914V15.6541H97.049V9.51901C97.049 7.94372 96.1316 7.11514 94.7137 7.11514C93.233 7.11514 92.0653 7.98552 92.0653 10.0997V15.6547H89.813V5.29075H92.0653V6.61752C92.7534 5.53985 93.8793 5.02133 95.2972 5.02133V5.02133ZM109.977 1.14552H112.229V15.6541H109.977V14.1618C109.185 15.2604 107.955 15.9235 106.328 15.9235C103.492 15.9235 101.136 13.54 101.136 10.4718C101.136 7.38398 103.492 5.02075 106.328 5.02075C107.955 5.02075 109.185 5.68385 109.977 6.7621V1.14552V1.14552ZM106.682 13.7891C108.559 13.7891 109.977 12.4002 109.977 10.4724C109.977 8.54469 108.559 7.15636 106.682 7.15636C104.806 7.15636 103.388 8.54527 103.388 10.4724C103.388 12.4002 104.806 13.7891 106.682 13.7891ZM119.778 15.9241C116.629 15.9241 114.273 13.5406 114.273 10.4724C114.273 7.38456 116.629 5.02133 119.778 5.02133C121.821 5.02133 123.594 6.07811 124.428 7.6952L122.488 8.81469C122.03 7.84036 121.008 7.21849 119.757 7.21849C117.922 7.21849 116.525 8.6074 116.525 10.4724C116.525 12.338 117.922 13.7269 119.757 13.7269C121.008 13.7269 122.03 13.0842 122.53 12.1308L124.469 13.2293C123.594 14.8668 121.821 15.9235 119.778 15.9235V15.9241ZM128.181 8.15101C128.181 10.0375 133.79 8.89714 133.79 12.7323C133.79 14.8052 131.976 15.9241 129.724 15.9241C127.639 15.9241 126.138 14.991 125.47 13.4988L127.41 12.3798C127.743 13.3124 128.577 13.8721 129.724 13.8721C130.725 13.8721 131.496 13.5406 131.496 12.7108C131.496 10.8667 125.887 11.9031 125.887 8.19281C125.887 6.24417 127.576 5.02133 129.703 5.02133C131.413 5.02133 132.831 5.80927 133.561 7.17727L131.664 8.23404C131.288 7.42578 130.558 7.05243 129.703 7.05243C128.89 7.05243 128.181 7.40488 128.181 8.15101V8.15101ZM137.794 8.15101C137.794 10.0375 143.403 8.89714 143.403 12.7323C143.403 14.8052 141.589 15.9241 139.337 15.9241C137.252 15.9241 135.751 14.991 135.083 13.4988L137.022 12.3798C137.356 13.3124 138.19 13.8721 139.337 13.8721C140.338 13.8721 141.11 13.5406 141.11 12.7108C141.11 10.8667 135.5 11.9031 135.5 8.19281C135.5 6.24417 137.189 5.02133 139.316 5.02133C141.026 5.02133 142.444 5.80927 143.174 7.17727L141.276 8.23404C140.901 7.42578 140.171 7.05243 139.316 7.05243C138.503 7.05243 137.794 7.40488 137.794 8.15101V8.15101Z" fill="#818D98" fill-opacity="0.8"/>
</g>
<defs>
<clipPath id="clip0_29_464">
<rect width="143.55" height="18" fill="white"/>
</clipPath>
</defs>
</svg>
