<svg width="132" height="30" viewBox="0 0 132 30" fill="none" xmlns="http://www.w3.org/2000/svg">
<g clip-path="url(#clip0_29_470)">
<path fill-rule="evenodd" clip-rule="evenodd" d="M38.619 17.6792C38.1021 16.9781 37.2232 16.4046 36.1588 16.4046C34.1874 16.4046 32.7656 17.9092 32.7656 19.9472C32.7656 21.986 34.1874 23.4903 36.1588 23.4903C37.0798 23.4903 37.9407 23.0976 38.391 22.7063C38.4213 22.6799 38.4367 22.642 38.4367 22.602V21.4965C38.4367 21.4273 38.3806 21.3707 38.311 21.3707H35.7755C35.6747 21.3707 35.5929 21.2888 35.5929 21.1882V19.5477C35.5929 19.4467 35.6747 19.3648 35.7755 19.3648H40.3217V16.93L38.8539 17.734C38.7757 17.7769 38.672 17.7509 38.619 17.6792ZM17.2777 18.8311H19.9857C20.7612 18.8311 21.2461 18.394 21.2461 17.6987C21.2461 17.0351 20.7612 16.5662 19.9857 16.5662H17.2777C17.1847 16.5662 17.1098 16.6416 17.1098 16.7343V18.6632C17.1098 18.7559 17.1847 18.8311 17.2777 18.8311ZM28.2876 25.184C28.2876 25.2673 28.2202 25.3344 28.1374 25.3344H26.1437C26.0604 25.3344 25.9931 25.2673 25.9931 25.184V14.6948C25.9931 14.6118 26.0604 14.5444 26.1437 14.5444H28.1374C28.2202 14.5444 28.2876 14.6118 28.2876 14.6948V25.184ZM39.7487 0.0701457L19.9762 14.5444H20.4866C22.5387 14.5444 23.5887 15.8543 23.5887 17.294C23.5887 18.4142 23.0041 19.2416 22.2195 19.6073C22.0891 19.6682 22.0938 19.8528 22.2271 19.9073C23.1417 20.282 23.7991 21.2619 23.7991 22.4062C23.7991 24.0403 22.7325 25.3344 20.6645 25.3344H14.9833C14.8904 25.3344 14.8151 25.2594 14.8151 25.1663V18.3222L0.148167 29.0592C-0.132795 29.2651 0.0123686 29.7109 0.36105 29.7109H39.9616C40.1604 29.7109 40.3218 29.5493 40.3218 29.3502V23.9199C39.2621 24.9091 37.8688 25.5288 36.1585 25.5288C32.9919 25.5288 30.4067 23.345 30.4067 19.9473C30.4067 16.5338 32.9919 14.3663 36.1585 14.3663C38.1497 14.3663 39.4836 15.2694 40.3218 16.3726V0.361161C40.3218 0.0661513 39.9868 -0.104044 39.7487 0.0701457ZM17.2777 23.3121H20.0826C20.9388 23.3121 21.4557 22.8592 21.4557 22.0827C21.4557 21.4036 20.9716 20.8532 20.0826 20.8532H17.2777C17.1847 20.8532 17.1098 20.9286 17.1098 21.0213V23.1441C17.1098 23.2368 17.1847 23.3121 17.2777 23.3121ZM51.8143 22.9848L50.5784 22.3432C50.4988 22.3017 50.3983 22.3321 50.35 22.4078C49.8274 23.2283 48.8631 23.8375 47.8153 23.8375C45.7581 23.8375 44.2308 22.1875 44.2308 19.9384C44.2308 17.6577 45.7581 16.0398 47.8153 16.0398C48.8624 16.0398 49.8263 16.6338 50.3493 17.4654C50.398 17.543 50.4995 17.5729 50.5802 17.5293L51.8067 16.8603C51.9 16.8095 51.9328 16.6929 51.8755 16.6027C51.0996 15.3801 49.8148 14.3574 47.8153 14.3574C44.7449 14.3574 42.3603 16.6064 42.3603 19.9384C42.3603 23.255 44.7449 25.5199 47.8153 25.5199C49.8126 25.5199 51.0827 24.47 51.8849 23.2467C51.9458 23.154 51.9123 23.0357 51.8143 22.9848ZM58.2563 23.8375C56.1501 23.8375 54.8083 22.1551 54.8083 19.9386C54.8083 17.7065 56.1501 16.0399 58.2563 16.0399C60.3465 16.0399 61.7038 17.7065 61.7038 19.9386C61.7038 22.1551 60.3465 23.8375 58.2563 23.8375ZM56.783 14.5461C54.4658 15.1661 52.9363 17.2542 52.9363 19.9386C52.9363 23.1581 55.1361 25.52 58.2563 25.52C60.9131 25.52 62.9188 23.7899 63.4418 21.2725C64.2937 17.173 60.6992 13.4988 56.783 14.5461ZM76.5182 14.5356H74.1531C74.0479 14.5356 73.9535 14.5997 73.915 14.6978L71.0546 22.1016L68.1779 14.6971C68.1394 14.5997 68.045 14.5356 67.9398 14.5356H65.5744C65.5045 14.5356 65.4476 14.5926 65.4476 14.6626V25.1989C65.4476 25.2689 65.5045 25.3259 65.5744 25.3259H67.2115C67.2814 25.3259 67.3383 25.2689 67.3383 25.1989V16.9945L70.6281 25.2685C70.6418 25.3031 70.6753 25.3259 70.7124 25.3259H71.3967C71.4338 25.3259 71.4673 25.3031 71.481 25.2685L74.7546 16.9945V25.1989C74.7546 25.2689 74.8112 25.3259 74.8814 25.3259H76.5182C76.5884 25.3259 76.645 25.2689 76.645 25.1989V14.6626C76.645 14.5926 76.5884 14.5356 76.5182 14.5356ZM100.695 14.5356H93.7C93.5923 14.5356 93.5051 14.6228 93.5051 14.7307V25.1308C93.5051 25.2387 93.5923 25.3259 93.7 25.3259H100.695C100.802 25.3259 100.889 25.2387 100.889 25.1308V23.8548C100.889 23.747 100.802 23.6596 100.695 23.6596H95.5907C95.483 23.6596 95.3959 23.5724 95.3959 23.4646V20.8455C95.3959 20.7377 95.483 20.6503 95.5907 20.6503H100.582C100.689 20.6503 100.777 20.5627 100.777 20.4553V19.1793C100.777 19.0714 100.689 18.9842 100.582 18.9842H95.5907C95.483 18.9842 95.3959 18.897 95.3959 18.7891V16.3969C95.3959 16.2891 95.483 16.2017 95.5907 16.2017H100.695C100.802 16.2017 100.889 16.1141 100.889 16.0067V14.7307C100.889 14.6228 100.802 14.5356 100.695 14.5356ZM108.068 19.6313H105.66C105.553 19.6313 105.467 19.5448 105.467 19.4381V16.3949C105.467 16.2881 105.553 16.2016 105.66 16.2016H108.068C109.134 16.2016 109.91 16.8652 109.91 17.9006C109.91 18.9519 109.134 19.6313 108.068 19.6313ZM109.552 21.0313C110.758 20.7269 111.849 19.6927 111.849 17.9165C111.849 15.9105 110.443 14.5357 108.31 14.5357H103.769C103.663 14.5357 103.576 14.6223 103.576 14.7291V25.1324C103.576 25.2392 103.663 25.326 103.769 25.326H105.273C105.38 25.326 105.467 25.2392 105.467 25.1324V21.4908C105.467 21.3841 105.553 21.2976 105.66 21.2976H107.247C107.315 21.2976 107.378 21.3336 107.413 21.3924L109.676 25.2308C109.711 25.2896 109.774 25.326 109.843 25.326H111.581C111.733 25.326 111.826 25.1597 111.745 25.031C111.246 24.2328 109.876 22.0416 109.426 21.3206C109.354 21.2067 109.421 21.0641 109.552 21.0313ZM126.697 16.2016H131.81C131.915 16.2016 132 16.1165 132 16.0112V14.7259C132 14.621 131.915 14.5355 131.81 14.5355H124.806C124.701 14.5355 124.616 14.621 124.616 14.7259V25.1353C124.616 25.2406 124.701 25.3258 124.806 25.3258H131.81C131.915 25.3258 132 25.2406 132 25.1353V23.8499C132 23.745 131.915 23.6599 131.81 23.6599H126.697C126.591 23.6599 126.506 23.5744 126.506 23.4694V20.8408C126.506 20.7355 126.591 20.6503 126.697 20.6503H131.697C131.802 20.6503 131.887 20.5652 131.887 20.4599V19.1745C131.887 19.0696 131.802 18.9841 131.697 18.9841H126.697C126.591 18.9841 126.506 18.899 126.506 18.7937V16.392C126.506 16.2867 126.591 16.2016 126.697 16.2016ZM122.687 22.94L121.451 22.2984C121.371 22.2569 121.271 22.2873 121.223 22.363C120.7 23.1835 119.736 23.7926 118.688 23.7926C116.631 23.7926 115.103 22.1426 115.103 19.8936C115.103 17.6129 116.631 15.995 118.688 15.995C119.735 15.995 120.699 16.589 121.222 17.4206C121.27 17.4982 121.372 17.5281 121.453 17.4845L122.679 16.8154C122.773 16.7645 122.805 16.6477 122.748 16.5579C121.972 15.3353 120.687 14.3125 118.688 14.3125C115.617 14.3125 113.233 16.5616 113.233 19.8936C113.233 23.2102 115.617 25.4751 118.688 25.4751C120.685 25.4751 121.955 24.4252 122.757 23.2019C122.818 23.1092 122.785 22.9909 122.687 22.94ZM90.4765 14.5356H88.1114C88.0062 14.5356 87.9118 14.5997 87.8733 14.6978L85.0129 22.1016L82.1362 14.6971C82.0977 14.5997 82.0033 14.5356 81.8981 14.5356H79.5327C79.4628 14.5356 79.4059 14.5926 79.4059 14.6626V25.1989C79.4059 25.2689 79.4628 25.3259 79.5327 25.3259H81.1698C81.2397 25.3259 81.2966 25.2689 81.2966 25.1989V16.9945L84.5864 25.2685C84.6001 25.3031 84.6336 25.3259 84.6707 25.3259H85.3551C85.3922 25.3259 85.4257 25.3031 85.4393 25.2685L88.7129 16.9945V25.1989C88.7129 25.2689 88.7695 25.3259 88.8397 25.3259H90.4765C90.5467 25.3259 90.6033 25.2689 90.6033 25.1989V14.6626C90.6033 14.5926 90.5467 14.5356 90.4765 14.5356Z" fill="#818D98" fill-opacity="0.8"/>
</g>
<defs>
<clipPath id="clip0_29_470">
<rect width="132" height="30" fill="white"/>
</clipPath>
</defs>
</svg>
