<svg width="114" height="26" viewBox="0 0 114 26" fill="none" xmlns="http://www.w3.org/2000/svg">
<g clip-path="url(#clip0_29_488)">
<path d="M56.6719 6.50037C52.2559 6.50037 49.0719 9.38037 49.0719 13.7004C49.0719 18.0204 52.6559 20.9004 57.0719 20.9004C59.7399 20.9004 62.0919 19.8444 63.5479 18.0644L60.4879 16.2964C59.6799 17.1804 58.4519 17.6964 57.0719 17.6964C55.1559 17.6964 53.5279 16.6964 52.9239 15.0964H64.1319C64.2199 14.6484 64.2719 14.1844 64.2719 13.6964C64.2719 9.38037 61.0879 6.50037 56.6719 6.50037V6.50037ZM52.8879 12.3004C53.3879 10.7044 54.7559 9.70037 56.6679 9.70037C58.5839 9.70037 59.9519 10.7044 60.4479 12.3004H52.8879V12.3004ZM99.7439 6.50037C95.3279 6.50037 92.1439 9.38037 92.1439 13.7004C92.1439 18.0204 95.7279 20.9004 100.144 20.9004C102.812 20.9004 105.164 19.8444 106.62 18.0644L103.56 16.2964C102.752 17.1804 101.524 17.6964 100.144 17.6964C98.2279 17.6964 96.5999 16.6964 95.9959 15.0964H107.204C107.292 14.6484 107.344 14.1844 107.344 13.6964C107.344 9.38037 104.16 6.50037 99.7439 6.50037V6.50037ZM95.9639 12.3004C96.4639 10.7044 97.8319 9.70037 99.7439 9.70037C101.66 9.70037 103.028 10.7044 103.524 12.3004H95.9639V12.3004ZM80.3519 13.7004C80.3519 16.1004 81.9199 17.7004 84.3519 17.7004C85.9999 17.7004 87.2359 16.9524 87.8719 15.7324L90.9439 17.5044C89.6719 19.6244 87.2879 20.9004 84.3519 20.9004C79.9319 20.9004 76.7519 18.0204 76.7519 13.7004C76.7519 9.38037 79.9359 6.50037 84.3519 6.50037C87.2879 6.50037 89.6679 7.77637 90.9439 9.89637L87.8719 11.6684C87.2359 10.4484 85.9999 9.70037 84.3519 9.70037C81.9239 9.70037 80.3519 11.3004 80.3519 13.7004ZM113.344 2.10037V20.5004H109.744V2.10037H113.344ZM15.0359 0.100372L29.8159 25.7004H0.255859L15.0359 0.100372ZM51.9879 2.10037L40.9039 21.3004L29.8199 2.10037H33.9759L40.9039 14.1004L47.8319 2.10037H51.9879V2.10037ZM75.5519 6.90037V10.7764C75.1519 10.6604 74.7279 10.5804 74.2719 10.5804C71.9479 10.5804 70.2719 12.1804 70.2719 14.5804V20.5004H66.6719V6.90037H70.2719V10.5804C70.2719 8.54837 72.6359 6.90037 75.5519 6.90037Z" fill="#818D98" fill-opacity="0.8"/>
</g>
<defs>
<clipPath id="clip0_29_488">
<rect width="113.75" height="26" fill="white"/>
</clipPath>
</defs>
</svg>
