<svg width="161" height="26" viewBox="0 0 161 26" fill="none" xmlns="http://www.w3.org/2000/svg">
<path d="M22.1 2.6H16.835C16.835 2.6 15.665 2.665 14.95 1.95C14.495 1.56 14.3 0.845 14.3 0H11.7C11.7 0.91 11.505 1.56 11.05 1.95C10.335 2.6 9.23 2.6 9.23 2.6H3.9C1.105 2.6 0 4.94 0 6.5V10.4H2.6V6.5C2.6 5.915 2.86 5.2 3.9 5.2H9.035C9.425 5.2 11.31 5.2 12.74 3.9C12.805 3.835 12.87 3.77 12.935 3.705C13 3.77 13.065 3.835 13.13 3.9C14.56 5.265 16.445 5.2 16.835 5.2H22.1C23.14 5.2 23.4 5.915 23.4 6.5V10.4H26V6.5C26 4.94 24.96 2.6 22.1 2.6Z" fill="#818D98" fill-opacity="0.8"/>
<path d="M11.05 10.4H5.85V15.6H11.05V10.4Z" fill="#818D98" fill-opacity="0.8"/>
<path d="M20.15 10.4H14.95V15.6H20.15V10.4Z" fill="#818D98" fill-opacity="0.8"/>
<path d="M23.4586 19.5C23.4586 20.085 23.198 20.8 22.1554 20.8H17.0075C16.6165 20.8 14.7268 20.8 13.2932 22.1C13.2281 22.165 13.1629 22.23 13.0978 22.295C13.0326 22.23 12.9674 22.165 12.9022 22.1C11.4687 20.735 9.57892 20.8 9.18794 20.8H3.90978C2.86717 20.8 2.60652 20.085 2.60652 19.5V15.6H0V19.5C0 21.06 1.10777 23.4 3.90978 23.4H9.18794C9.18794 23.4 10.3609 23.335 11.0777 24.05C11.5339 24.44 11.7293 25.155 11.7293 26H14.3358C14.3358 25.09 14.5313 24.44 14.9874 24.05C15.7043 23.4 16.8121 23.4 16.8121 23.4H22.0902C24.8922 23.4 26 21.06 26 19.5V15.6H23.3935L23.4586 19.5Z" fill="#818D98" fill-opacity="0.8"/>
<path d="M36.4 12.7725C36.4 10.1029 38.1056 8.1354 40.794 8.1354C42.8597 8.1354 44.356 9.2573 44.7467 11.0636L42.534 11.6486C42.274 10.738 41.574 10.2011 40.7608 10.2011C39.3607 10.2011 38.7426 11.3074 38.7426 12.7725C38.7426 14.3013 39.4264 15.3426 40.7608 15.3426C41.7527 15.3426 42.2227 14.8707 42.4853 14.0244L44.7473 14.4963C44.2423 16.3644 42.7973 17.4096 40.7608 17.4096C38.025 17.4089 36.4 15.4069 36.4 12.7725ZM45.9394 12.7725C45.9394 10.0217 47.7789 8.1354 50.3821 8.1354C53.0341 8.1354 54.8405 10.0548 54.8405 12.7725C54.8405 15.5057 53.0179 17.4096 50.3815 17.4096C47.7301 17.4096 45.9394 15.4888 45.9394 12.7725ZM52.4979 12.7725C52.4979 11.2099 51.7809 10.2011 50.3821 10.2011C48.9339 10.2011 48.2833 11.2424 48.2833 12.7725C48.2833 14.35 48.9983 15.3426 50.3821 15.3426C51.7972 15.3426 52.4972 14.285 52.4972 12.7725H52.4979ZM69.1743 11.3893V17.1652H66.9617V11.9749C66.9617 10.8199 66.376 10.1361 65.4186 10.1361C64.491 10.1361 63.8885 10.8355 63.8885 11.8417V17.1619H61.6739V11.9749C61.6739 10.8199 61.0889 10.1361 60.1308 10.1361C59.2039 10.1361 58.602 10.8355 58.602 11.8417V17.1619H56.3693V8.3759H58.3264V9.3353C58.9121 8.6112 59.8397 8.16465 60.8972 8.16465C62.1582 8.16465 62.9967 8.70935 63.4511 9.53095C64.0192 8.6853 65.0052 8.16465 66.1355 8.16465C68.1323 8.1679 69.1743 9.46855 69.1743 11.3893ZM83.8344 11.3893V17.1652H81.6218V11.9749C81.6218 10.8199 81.0361 10.1361 80.0787 10.1361C79.1511 10.1361 78.5486 10.8355 78.5486 11.8417V17.1619H76.334V11.9749C76.334 10.8199 75.749 10.1361 74.7909 10.1361C73.8634 10.1361 73.2621 10.8355 73.2621 11.8417V17.1619H71.0294V8.3759H72.9826V9.3353C73.5676 8.6112 74.4952 8.16465 75.5527 8.16465C76.8137 8.16465 77.6522 8.70935 78.1072 9.53095C78.676 8.6853 79.6607 8.16465 80.7917 8.16465C82.7937 8.1679 83.8344 9.46855 83.8344 11.3893ZM87.438 13.3906C87.6005 14.6432 88.3012 15.3393 89.4965 15.3393C90.3591 15.3393 90.9941 14.9487 91.3185 14.233L93.5317 14.8674C92.8642 16.4788 91.3185 17.4063 89.6272 17.4063C86.9258 17.4063 85.0551 15.5181 85.0551 12.8823C85.0551 10.0028 86.8939 8.13215 89.4965 8.13215C92.2623 8.13215 93.8736 10.1979 93.6045 13.3874L87.438 13.3906ZM87.4952 11.7474H91.3672C91.2132 10.5592 90.66 10.0548 89.5947 10.0548C88.4065 10.0548 87.7246 10.6327 87.4952 11.7474ZM100.349 8.3759V10.4429C99.8614 10.296 99.1452 10.3454 98.6245 10.5885C97.8432 10.946 97.4207 11.6623 97.4207 12.6717V17.1619H95.1957V8.3759H97.1451V9.79095C97.3641 9.38118 97.69 9.0384 98.0882 8.79905C98.722 8.41165 99.552 8.28165 100.349 8.3759ZM101 12.7725C101 10.1036 102.705 8.1354 105.393 8.1354C107.459 8.1354 108.956 9.2573 109.346 11.0636L107.134 11.6486C106.874 10.738 106.174 10.2011 105.36 10.2011C103.962 10.2011 103.343 11.3074 103.343 12.7725C103.343 14.3013 104.027 15.3426 105.36 15.3426C106.353 15.3426 106.822 14.8707 107.085 14.0244L109.346 14.4963C108.842 16.3644 107.398 17.4096 105.36 17.4096C102.627 17.4096 101 15.4076 101 12.7725ZM112.924 13.3906C113.086 14.6432 113.786 15.3393 114.982 15.3393C115.844 15.3393 116.479 14.9487 116.804 14.233L119.017 14.8674C118.35 16.4788 116.804 17.4063 115.112 17.4063C112.412 17.4063 110.54 15.5181 110.54 12.8823C110.54 10.0028 112.379 8.13215 114.982 8.13215C117.747 8.13215 119.359 10.1979 119.09 13.3874L112.924 13.3906ZM112.98 11.7474H116.852C116.698 10.5592 116.145 10.0548 115.08 10.0548C113.892 10.0548 113.209 10.6327 112.98 11.7474ZM123.85 17.1652V5.20845H126.062V17.1652H123.85ZM135.629 17.1652H133.693V16.0908C132.912 17.0177 132.049 17.4083 130.699 17.4083C128.812 17.4083 127.771 16.2045 127.771 14.74C127.771 13.5219 128.275 12.608 129.691 12.088C130.536 11.7786 131.802 11.5914 133.449 11.3477C133.359 10.5261 132.88 10.1517 131.838 10.1517C131.189 10.1517 130.357 10.4279 130.081 11.2261L128.08 10.5911C128.519 9.1429 129.722 8.1341 131.838 8.1341C133.381 8.1341 134.653 8.55725 135.271 9.72855C135.613 10.3798 135.629 10.9986 135.629 11.7955V17.1652ZM133.433 13.1378C131.952 13.3906 131.35 13.5122 130.846 13.6994C130.196 13.9594 129.935 14.2681 129.935 14.7075C129.935 15.3101 130.406 15.6682 131.171 15.6682C132.389 15.6682 133.026 14.8707 133.201 14.4963C133.376 14.1219 133.424 13.5603 133.433 13.1378ZM147.612 13.3906C147.775 14.6432 148.475 15.3393 149.671 15.3393C150.533 15.3393 151.168 14.9487 151.494 14.233L153.705 14.8674C153.039 16.4788 151.494 17.4063 149.801 17.4063C147.1 17.4063 145.229 15.5181 145.229 12.8823C145.229 10.0028 147.068 8.13215 149.671 8.13215C152.437 8.13215 154.047 10.1979 153.78 13.3874L147.612 13.3906ZM147.67 11.7474H151.542C151.388 10.5592 150.834 10.0548 149.768 10.0548C148.582 10.0548 147.901 10.6327 147.67 11.7474ZM160.523 8.3759V10.4429C160.036 10.296 159.32 10.3454 158.799 10.5885C158.018 10.946 157.594 11.6623 157.594 12.6717V17.1619H155.366V8.3759H157.314V9.79095C157.534 9.38155 157.86 9.03892 158.258 8.79905C158.896 8.41165 159.726 8.28165 160.523 8.3759ZM142.981 8.37005V8.37915H142.938L140.644 14.3585L138.33 8.3759H136.036L139.594 17.1145L139.261 17.9738C139.173 18.2045 139.017 18.4032 138.814 18.5438C138.611 18.6844 138.371 18.7603 138.124 18.7616H137.239V20.7915H138.124C138.781 20.7896 139.422 20.5894 139.964 20.2172C140.506 19.8449 140.923 19.3179 141.16 18.705L145.163 8.37005H142.981Z" fill="#818D98" fill-opacity="0.8"/>
</svg>
