<svg width="49" height="48" viewBox="0 0 49 48" fill="none" xmlns="http://www.w3.org/2000/svg">
<path d="M3.41138 23.9994C3.41138 32.1488 8.1474 39.1916 15.015 42.529L5.1939 15.6204C4.05152 18.1809 3.41138 21.0145 3.41138 23.9994Z" fill="#4263EB"/>
<path d="M37.8991 22.9604C37.8991 20.4159 36.9852 18.6537 36.2012 17.2821C35.1576 15.5862 34.1794 14.15 34.1794 12.4541C34.1794 10.5614 35.6148 8.79969 37.6367 8.79969C37.7279 8.79969 37.8145 8.81105 37.9035 8.81614C34.2405 5.4603 29.3603 3.41138 24.0002 3.41138C16.8074 3.41138 10.4792 7.10179 6.79785 12.6915C7.2809 12.706 7.73612 12.7161 8.12279 12.7161C10.2763 12.7161 13.6098 12.4548 13.6098 12.4548C14.7197 12.3894 14.8505 14.0195 13.7419 14.1508C13.7419 14.1508 12.6265 14.282 11.3854 14.3471L18.883 36.6482L23.3886 23.1351L20.1809 14.3463C19.0722 14.2812 18.0219 14.15 18.0219 14.15C16.9124 14.085 17.0425 12.3886 18.1519 12.4541C18.1519 12.4541 21.552 12.7154 23.5751 12.7154C25.7282 12.7154 29.0621 12.4541 29.0621 12.4541C30.1728 12.3886 30.3032 14.0188 29.1942 14.15C29.1942 14.15 28.0765 14.2812 26.8377 14.3463L34.2781 36.4785L36.3317 29.616C37.2218 26.7683 37.8991 24.7229 37.8991 22.9604Z" fill="#4263EB"/>
<path d="M24.3614 25.8003L18.1841 43.7505C20.0285 44.2927 21.9791 44.5893 24.0002 44.5893C26.3978 44.5893 28.697 44.1748 30.8372 43.4222C30.782 43.334 30.7319 43.2404 30.6907 43.1386L24.3614 25.8003Z" fill="#4263EB"/>
<path d="M42.0659 14.1216C42.1544 14.7774 42.2046 15.4814 42.2046 16.2387C42.2046 18.3279 41.8144 20.6766 40.6391 23.6132L34.3501 41.7961C40.471 38.2268 44.588 31.5954 44.588 23.9999C44.5884 20.4204 43.6741 17.0543 42.0659 14.1216Z" fill="#4263EB"/>
<path d="M24.0002 0C10.7668 0 0 10.766 0 23.9994C0 37.2343 10.7668 48 24.0002 48C37.2332 48 48.0016 37.2343 48.0016 23.9994C48.0012 10.766 37.2332 0 24.0002 0ZM24.0002 46.8999C11.3737 46.8999 1.10046 36.6267 1.10046 23.9994C1.10046 11.3729 11.3733 1.10046 24.0002 1.10046C36.6263 1.10046 46.8988 11.3729 46.8988 23.9994C46.8988 36.6267 36.6263 46.8999 24.0002 46.8999Z" fill="#4263EB"/>
</svg>
